#!OML:ASF F:\VICON\USERDATA\INSTALL\rory3\rory3.ASF
:FULLY-SPECIFIED
:DEGREES
239
root 10.289 17.5055 6.20045 -179.184 -39.8 176.435
lowerback 13.7314 1.60197 -1.67812
upperback 0.725336 1.79658 0.235007
thorax -7.00032 0.895933 0.850902
lowerneck -19.4929 -3.23872 -11.7631
upperneck 33.564 -4.5762 6.92026
head 15.5246 -2.98958 3.99465
rclavicle -4.79568e-014 2.74323e-014
rhumerus -37.4768 -25.6074 -66.7367
rradius 31.3241
rwrist 7.08927
rhand -15.8192 6.94189
rfingers 7.12502
rthumb 10.3745 -22.7822
lclavicle -4.79568e-014 2.74323e-014
lhumerus -32.3231 7.84971 82.6799
lradius 32.1071
lwrist -4.80947
lhand -20.3679 24.3277
lfingers 7.12502
lthumb 5.98461 54.2231
rfemur -1.99341 11.2779 -0.0717788
rtibia 24.6477
rfoot -11.4264 -3.97533
rtoes -11.4961
lfemur -5.91373 -8.13286 -11.2598
ltibia 21.2132
lfoot -14.5703 -11.9402
ltoes -20.017
240
root 10.1989 17.5397 6.29004 -179.317 -39.1355 176.615
lowerback 13.8486 1.70263 -1.47367
upperback 0.740778 1.95637 0.217898
thorax -7.04639 0.965844 0.683236
lowerneck -19.4682 -3.24547 -11.813
upperneck 33.5257 -4.57654 6.93695
head 15.5027 -2.99353 4.00917
rclavicle -4.83047e-014 1.15295e-014
rhumerus -37.653 -25.9827 -66.8172
rradius 31.6857
rwrist 7.44124
rhand -15.9906 7.31771
rfingers 7.12502
rthumb 10.2092 -22.4146
lclavicle -4.83047e-014 1.15295e-014
lhumerus -32.2199 7.7077 82.6841
lradius 32.1103
lwrist -4.87895
lhand -20.369 24.1178
lfingers 7.12502
lthumb 5.98357 54.0133
rfemur -2.63453 10.8811 -0.0100488
rtibia 25.2705
rfoot -10.0893 -5.10048
rtoes -7.3436
lfemur -5.66758 -8.06166 -11.6858
ltibia 21.1165
lfoot -14.4804 -11.1519
ltoes -20.1076
241
root 10.1136 17.5725 6.37652 -179.453 -38.5369 176.852
lowerback 13.8508 1.76881 -1.28731
upperback 0.799433 2.07165 0.237213
thorax -6.98173 1.01448 0.576766
lowerneck -19.577 -3.21902 -11.8522
upperneck 33.5824 -4.53414 6.98772
head 15.5522 -2.97531 4.04794
rclavicle -9.34288e-015 -8.74653e-015
rhumerus -37.7931 -26.1497 -67.0889
rradius 32.1078
rwrist 7.31687
rhand -15.9276 7.29439
rfingers 7.12502
rthumb 10.27 -22.4349
lclavicle -9.34288e-015 -8.74653e-015
lhumerus -32.0976 7.29867 82.7702
lradius 32.1568
lwrist -4.64508
lhand -20.4496 24.2573
lfingers 7.12502
lthumb 5.90576 54.155
rfemur -3.34178 10.3423 0.193554
rtibia 25.9432
rfoot -8.78288 -6.60887
rtoes -3.91741
lfemur -5.46035 -8.22247 -12.0251
ltibia 20.9664
lfoot -14.304 -10.3414
ltoes -18.8931
242
root 10.0335 17.6056 6.45762 -179.593 -37.9921 177.085
lowerback 13.8149 1.79842 -1.21808
upperback 0.8678 2.12357 0.300934
thorax -6.88973 1.03669 0.597244
lowerneck -19.6232 -3.17288 -11.843
upperneck 33.6143 -4.45265 6.94158
head 15.5656 -2.9486 4.04233
rclavicle -3.34952e-014 -1.19271e-015
rhumerus -37.5816 -26.0858 -67.4716
rradius 31.8475
rwrist 7.34747
rhand -15.8126 7.20403
rfingers 7.12502
rthumb 10.3809 -22.5197
lclavicle -3.34952e-014 -1.19271e-015
lhumerus -31.9489 7.2989 82.7132
lradius 32.1034
lwrist -4.80567
lhand -20.4106 24.2779
lfingers 7.12502
lthumb 5.94338 54.1745
rfemur -4.04708 9.90538 0.483088
rtibia 26.7041
rfoot -7.61705 -8.39389
rtoes 1.33044
lfemur -5.2574 -8.38122 -12.3214
ltibia 20.8023
lfoot -14.1797 -9.62157
ltoes -18.4906
243
root 9.95789 17.6342 6.53396 -179.671 -37.4376 177.174
lowerback 13.8475 1.84332 -1.32238
upperback 0.904203 2.16869 0.368265
thorax -6.8769 1.06152 0.718272
lowerneck -19.5458 -3.15985 -11.958
upperneck 33.5402 -4.38715 6.9144
head 15.5066 -2.93927 4.06033
rclavicle -6.51517e-014 5.1684e-015
rhumerus -37.314 -26.0507 -67.722
rradius 31.3114
rwrist 7.87923
rhand -15.6206 7.53822
rfingers 7.12502
rthumb 10.5662 -22.1762
lclavicle -6.51517e-014 5.1684e-015
lhumerus -31.911 7.32875 82.6907
lradius 32.1643
lwrist -5.03695
lhand -20.3607 24.5978
lfingers 7.12502
lthumb 5.99162 54.4931
rfemur -4.70371 9.57091 0.710858
rtibia 27.5263
rfoot -6.71098 -10.5165
rtoes 7.2598
lfemur -5.0334 -8.34926 -12.6944
ltibia 20.6141
lfoot -14.0752 -9.16342
ltoes -18.2802
244
root 9.88516 17.6554 6.60435 -179.578 -36.946 176.908
lowerback 13.7361 1.86098 -1.73409
upperback 1.0774 2.12245 0.368507
thorax -6.64449 1.04587 0.966241
lowerneck -19.5553 -3.14186 -12.1249
upperneck 33.3645 -4.29832 6.99723
head 15.4207 -2.90075 4.13766
rclavicle 5.0044e-014 5.96354e-015
rhumerus -36.6702 -26.0068 -68.1201
rradius 30.6388
rwrist 8.3688
rhand -15.225 7.73587
rfingers 7.12502
rthumb 10.9478 -21.9587
lclavicle 5.0044e-014 5.96354e-015
lhumerus -31.7518 7.13447 82.7638
lradius 32.2941
lwrist -4.70331
lhand -20.4347 24.9794
lfingers 7.12502
lthumb 5.92013 54.8767
rfemur -5.27988 8.98799 0.693011
rtibia 28.3732
rfoot -5.92624 -12.551
rtoes 10.8761
lfemur -4.76789 -8.26336 -13.3739
ltibia 20.3773
lfoot -14.0248 -8.71487
ltoes -18.7436
245
root 9.81627 17.6729 6.6688 -179.573 -36.6072 176.751
lowerback 13.2368 1.77958 -2.25345
upperback 1.56693 1.93866 0.516323
thorax -5.86439 0.953523 1.47113
lowerneck -20.0303 -3.10253 -12.1004
upperneck 33.2298 -4.05177 6.80413
head 15.4296 -2.79224 4.09473
rclavicle -1.10624e-013 9.93923e-015
rhumerus -35.2084 -25.4911 -68.9645
rradius 29.8528
rwrist 8.57399
rhand -15.043 7.85809
rfingers 7.12502
rthumb 11.1233 -21.8271
lclavicle -1.10624e-013 9.93923e-015
lhumerus -31.1445 7.43346 82.8747
lradius 32.2902
lwrist -4.61897
lhand -20.4769 24.6187
lfingers 7.12502
lthumb 5.87939 54.5171
rfemur -5.74177 8.34282 0.852086
rtibia 29.2194
rfoot -5.72922 -14.2328
rtoes 14.5522
lfemur -4.4964 -8.33479 -13.9352
ltibia 20.1275
lfoot -13.8797 -8.2681
ltoes -19.2713
246
root 9.74628 17.6957 6.73251 -179.669 -36.2864 176.763
lowerback 13.3128 1.78148 -2.34914
upperback 1.57875 1.92216 0.49913
thorax -5.89597 0.946611 1.50853
lowerneck -20.0705 -3.0761 -12.0621
upperneck 33.3749 -4.05338 6.80695
head 15.5067 -2.79935 4.09248
rclavicle -3.88127e-014 1.59028e-015
rhumerus -34.8381 -24.8049 -69.5334
rradius 29.3039
rwrist 8.5661
rhand -15.0936 8.04528
rfingers 7.12502
rthumb 11.0744 -21.6425
lclavicle -3.88127e-014 1.59028e-015
lhumerus -31.2638 7.05799 82.8213
lradius 32.394
lwrist -4.62312
lhand -20.5744 24.2679
lfingers 7.12502
lthumb 5.78523 54.1689
rfemur -6.17325 7.74117 1.22874
rtibia 30.0885
rfoot -6.22866 -15.5241
rtoes 15.9847
lfemur -4.22015 -8.51871 -14.337
ltibia 19.8662
lfoot -13.6623 -7.88993
ltoes -18.8011
247
root 9.67618 17.7226 6.79669 -179.715 -35.9303 176.768
lowerback 13.3472 1.79478 -2.52959
upperback 1.54612 1.91596 0.540612
thorax -5.95688 0.949574 1.654
lowerneck -20.1506 -3.10533 -12.3226
upperneck 33.6582 -4.137 7.04925
head 15.6866 -2.85714 4.23602
rclavicle 1.98785e-014 -1.59028e-014
rhumerus -34.8591 -24.3743 -69.8708
rradius 29.3989
rwrist 8.91208
rhand -15.0065 8.30856
rfingers 7.12502
rthumb 11.1585 -21.3747
lclavicle 1.98785e-014 -1.59028e-014
lhumerus -31.4619 6.8091 82.7935
lradius 32.4903
lwrist -4.67822
lhand -20.8694 24.0645
lfingers 7.12502
lthumb 5.50043 53.9732
rfemur -6.68191 7.0607 1.62215
rtibia 30.9765
rfoot -7.13454 -16.3807
rtoes 16.4178
lfemur -4.01696 -8.77108 -14.7538
ltibia 19.6625
lfoot -13.416 -7.51055
ltoes -17.0258
248
root 9.60905 17.7455 6.85772 -179.738 -35.6444 176.772
lowerback 13.3021 1.7703 -2.72958
upperback 1.55061 1.85837 0.585134
thorax -5.93237 0.926274 1.82567
lowerneck -20.2916 -3.20506 -12.6754
upperneck 33.9471 -4.31786 7.37866
head 15.906 -2.95522 4.41756
rclavicle -6.9028e-014 1.27222e-014
rhumerus -35.1922 -24.422 -70.1125
rradius 30.1693
rwrist 9.75958
rhand -14.6844 8.84481
rfingers 7.12502
rthumb 11.4691 -20.8215
lclavicle -6.9028e-014 1.27222e-014
lhumerus -31.5085 6.57221 82.7359
lradius 32.4925
lwrist -4.89413
lhand -20.6317 23.7649
lfingers 7.12502
lthumb 5.72996 53.6675
rfemur -7.19014 6.30334 2.02842
rtibia 31.906
rfoot -8.34764 -16.7526
rtoes 18.8293
lfemur -3.89541 -8.94515 -15.158
ltibia 19.539
lfoot -13.2194 -7.11164
ltoes -15.4796
249
root 9.54544 17.7602 6.9174 -179.82 -35.283 176.814
lowerback 13.3901 1.75532 -2.80174
upperback 1.51237 1.82395 0.562166
thorax -6.02148 0.912443 1.8462
lowerneck -20.3137 -3.25026 -12.7864
upperneck 34.0627 -4.41866 7.49642
head 15.9896 -3.0078 4.4728
rclavicle -4.91495e-014 1.19271e-015
rhumerus -35.6866 -24.2892 -70.4778
rradius 31.0622
rwrist 10.2884
rhand -14.1972 9.2561
rfingers 7.12502
rthumb 11.939 -20.3835
lclavicle -4.91495e-014 1.19271e-015
lhumerus -31.6755 6.04506 82.6844
lradius 32.6715
lwrist -4.85471
lhand -20.3582 23.881
lfingers 7.12502
lthumb 5.99398 53.7762
rfemur -7.69367 5.50478 2.50217
rtibia 32.8825
rfoot -9.57076 -16.6311
rtoes 19.7297
lfemur -3.76214 -9.0827 -15.5311
ltibia 19.5108
lfoot -13.0587 -6.46239
ltoes -15.0336
250
root 9.48623 17.771 6.9754 -179.923 -34.9281 176.828
lowerback 13.6418 1.75269 -2.77759
upperback 1.40275 1.81067 0.456223
thorax -6.27253 0.908891 1.71627
lowerneck -20.1946 -3.21813 -12.6514
upperneck 34.0598 -4.43036 7.43036
head 15.9543 -3.01118 4.41547
rclavicle -3.47873e-015 1.98785e-015
rhumerus -36.3267 -24.0432 -70.9087
rradius 32.0305
rwrist 10.6744
rhand -13.8014 9.41937
rfingers 7.12502
rthumb 12.3206 -20.1976
lclavicle -3.47873e-015 1.98785e-015
lhumerus -32.0021 5.09048 82.6527
lradius 32.9567
lwrist -4.45515
lhand -20.2578 23.9092
lfingers 7.12502
lthumb 6.09095 53.8016
rfemur -8.17423 4.62151 3.01919
rtibia 33.8862
rfoot -10.5551 -16.1506
rtoes 17.8993
lfemur -3.67342 -9.12848 -15.9059
ltibia 19.6202
lfoot -13.026 -5.89543
ltoes -14.9721
251
root 9.42752 17.7832 7.0298 -180.077 -34.6569 176.99
lowerback 13.6995 1.71626 -2.7142
upperback 1.37408 1.76977 0.447205
thorax -6.33064 0.888246 1.67716
lowerneck -20.1945 -3.15052 -12.6507
upperneck 34.169 -4.40299 7.54678
head 16.006 -2.99583 4.47559
rclavicle 3.32964e-014 3.97569e-015
rhumerus -36.5077 -23.6726 -71.374
rradius 32.4457
rwrist 10.9966
rhand -13.7578 9.72229
rfingers 7.12502
rthumb 12.3626 -19.8922
lclavicle 3.32964e-014 3.97569e-015
lhumerus -32.1952 4.10669 82.7045
lradius 33.2191
lwrist -3.97222
lhand -20.1371 23.8651
lfingers 7.12502
lthumb 6.20745 53.7541
rfemur -8.60933 3.70692 3.7343
rtibia 34.8737
rfoot -11.4065 -15.5552
rtoes 15.7167
lfemur -3.71392 -9.22563 -16.1145
ltibia 19.9207
lfoot -13.0389 -5.53351
ltoes -13.933
